<?xml version="1.0" standalone="no"?>
<!DOCTYPE svg PUBLIC "-//W3C//DTD SVG 20010904//EN"
 "http://www.w3.org/TR/2001/REC-SVG-20010904/DTD/svg10.dtd">
<svg version="1.0" xmlns="http://www.w3.org/2000/svg"
 width="160.000000pt" height="160.000000pt" viewBox="0 0 160.000000 160.000000"
 preserveAspectRatio="xMidYMid meet">

<g transform="translate(0.000000,160.000000) scale(0.100000,-0.100000)"
fill="#000000" stroke="none">
<path d="M0 800 l0 -800 800 0 800 0 0 800 0 800 -800 0 -800 0 0 -800z m765
490 c-117 -7 -184 -27 -256 -75 -22 -14 -39 -21 -39 -17 0 13 96 63 159 83 39
13 85 18 151 17 l95 -1 -110 -7z m185 -12 c0 -10 -17 -9 -50 2 -21 7 -20 8 12
7 21 -1 38 -5 38 -9z m70 -33 c27 -13 51 -29 54 -34 5 -7 -97 43 -113 56 -14
10 16 0 59 -22z m-207 -2 c-13 -2 -35 -2 -50 0 -16 2 -5 4 22 4 28 0 40 -2 28
-4z m-108 -13 c-16 -4 -39 -8 -50 -8 l-20 -1 20 9 c11 5 34 8 50 8 l30 0 -30
-8z m200 0 c25 -11 -1 -11 -35 0 -20 6 -21 8 -5 8 11 0 29 -3 40 -8z m-329
-41 c-54 -28 -147 -112 -189 -170 -10 -14 -8 -8 4 13 37 67 188 187 234 187 6
0 -16 -14 -49 -30z m554 -26 c0 -3 -9 2 -20 12 -11 10 -20 22 -20 27 0 4 9 -1
20 -12 11 -11 20 -23 20 -27z m-725 -35 c-27 -29 -51 -55 -53 -58 -3 -3 1 6 9
20 7 14 12 29 11 33 -1 5 1 6 6 3 5 -3 22 8 37 24 49 51 40 33 -10 -22z m676
10 c20 -16 46 -43 59 -61 21 -31 20 -30 -16 6 -22 21 -55 52 -74 69 -41 36
-21 27 31 -14z m-131 -6 c0 -9 -4 -23 -8 -30 -5 -8 -8 1 -8 22 1 19 4 32 9 29
4 -2 7 -12 7 -21z m209 12 c3 3 15 -10 25 -27 l18 -32 -31 29 c-17 17 -31 35
-30 40 0 6 3 5 6 -2 2 -6 8 -10 12 -8z m-506 -104 c-6 -7 -23 23 -23 40 0 8 6
4 13 -10 8 -14 12 -27 10 -30z m577 8 c25 -41 26 -68 3 -68 -15 0 -16 2 -3 10
13 8 12 15 -7 50 -26 48 -21 53 7 8z m-387 5 c-29 -2 -78 -2 -110 0 -32 2 -8
3 52 3 61 0 87 -1 58 -3z m68 -12 c-7 -5 -10 -14 -7 -20 4 -6 11 -9 15 -7 4 3
5 -9 2 -27 l-5 -32 -6 30 -5 30 -127 0 c-69 0 -124 3 -121 8 2 4 55 7 118 7
65 0 116 4 120 10 3 6 12 10 18 10 8 0 7 -3 -2 -9z m269 -21 c6 -11 8 -20 6
-20 -3 0 -10 9 -16 20 -6 11 -8 20 -6 20 3 0 10 -9 16 -20z m-867 -30 c-9 -22
-18 -38 -20 -36 -5 5 24 76 31 76 2 0 -3 -18 -11 -40z m967 -5 c-33 -34 -60
-45 -60 -25 0 5 6 7 13 4 7 -2 26 9 42 26 16 16 31 30 34 30 3 0 -10 -16 -29
-35z m-500 -33 c69 -1 128 -6 132 -10 4 -4 -45 -6 -109 -4 -63 2 -123 0 -132
-5 -9 -5 37 -10 114 -14 l130 -5 -130 0 c-118 1 -130 3 -127 19 2 9 -2 17 -8
17 -5 0 -10 12 -9 28 l1 27 7 -25 c7 -25 8 -25 131 -28z m327 33 c0 -8 -4 -12
-9 -9 -5 3 -6 10 -3 15 9 13 12 11 12 -6z m63 0 c14 -8 21 -14 15 -14 -5 0
-21 6 -35 14 -14 8 -20 14 -15 14 6 0 21 -6 35 -14z m171 -16 c-5 -13 -10 -19
-10 -12 -1 15 10 45 15 40 3 -2 0 -15 -5 -28z m-973 1 c-7 -10 -14 -18 -15
-16 -6 6 9 36 18 36 5 0 4 -9 -3 -20z m-81 -52 c-3 -8 -6 -5 -6 6 -1 11 2 17
5 13 3 -3 4 -12 1 -19z m53 -15 c-11 -17 -11 -17 -6 0 3 10 6 24 7 30 0 9 2 9
5 0 3 -7 0 -20 -6 -30z m835 -5 c34 -35 35 -38 9 -17 -27 21 -60 59 -51 59 2
0 21 -19 42 -42z m-214 -33 l10 -20 -16 20 c-9 11 -21 29 -26 40 l-10 20 16
-20 c9 -11 21 -29 26 -40z m-683 10 c-4 -20 -1 -25 16 -26 11 0 15 -3 8 -6
-24 -9 -40 4 -35 31 3 14 8 26 10 26 3 0 3 -11 1 -25z m336 0 c-9 -14 -21 -25
-26 -25 -5 0 -6 -5 -2 -12 4 -7 3 -8 -5 -4 -8 5 -3 16 16 37 34 36 38 37 17 4z
m682 -39 c-13 -32 -19 -36 -43 -33 -18 2 -29 11 -32 23 -3 18 -2 18 16 2 29
-26 40 -22 53 18 7 19 14 33 17 31 2 -3 -3 -21 -11 -41z m-969 12 c-3 -8 -6
-5 -6 6 -1 11 2 17 5 13 3 -3 4 -12 1 -19z m515 -73 c9 -18 9 -18 -5 -5 -8 8
-17 29 -20 45 -6 29 -6 29 4 5 6 -14 16 -34 21 -45z m154 38 c2 -27 1 -27 -14
3 -8 15 -8 21 1 21 7 0 13 -11 13 -24z m-199 -5 c-3 -8 -6 -5 -6 6 -1 11 2 17
5 13 3 -3 4 -12 1 -19z m-466 -20 c37 -49 53 -76 29 -48 -12 14 -33 37 -46 53
-13 15 -20 27 -16 27 5 0 19 -14 33 -32z m-75 -25 c-8 -15 -15 -25 -16 -21 0
12 23 58 27 54 3 -2 -2 -17 -11 -33z m305 10 c-12 -20 -14 -14 -5 12 4 9 9 14
11 11 3 -2 0 -13 -6 -23z m737 -40 c-2 -57 -2 -57 -5 -10 -3 38 -8 47 -23 47
-11 0 -20 -9 -23 -22 -4 -20 -4 -20 -6 4 -1 22 4 27 27 31 15 2 28 5 30 6 1 0
1 -25 0 -56z m-585 22 c-3 -9 -8 -14 -10 -11 -3 3 -2 9 2 15 9 16 15 13 8 -4z
m47 11 c0 -2 -8 -10 -17 -17 -16 -13 -17 -12 -4 4 13 16 21 21 21 13z m55 -6
c3 -6 -1 -7 -9 -4 -18 7 -21 14 -7 14 6 0 13 -4 16 -10z m-268 -32 c-3 -8 -6
-5 -6 6 -1 11 2 17 5 13 3 -3 4 -12 1 -19z m305 -20 c-6 -6 -7 0 -4 19 5 21 7
23 10 9 2 -10 0 -22 -6 -28z m175 -10 c-3 -8 -6 -5 -6 6 -1 11 2 17 5 13 3 -3
4 -12 1 -19z m-617 -10 c0 -6 -6 -5 -15 2 -8 7 -15 14 -15 16 0 2 7 1 15 -2 8
-4 15 -11 15 -16z m127 -10 c-3 -7 -5 -2 -5 12 0 14 2 19 5 13 2 -7 2 -19 0
-25z m207 16 c3 -8 2 -12 -4 -9 -6 3 -10 10 -10 16 0 14 7 11 14 -7z m493 -16
c-3 -7 -5 -2 -5 12 0 14 2 19 5 13 2 -7 2 -19 0 -25z m-512 -8 l20 -25 -22 19
c-13 11 -23 24 -23 29 0 6 1 8 3 6 1 -2 11 -15 22 -29z m68 3 c-7 -2 -19 -2
-25 0 -7 3 -2 5 12 5 14 0 19 -2 13 -5z m244 -60 c-2 -16 -4 -5 -4 22 0 28 2
40 4 28 2 -13 2 -35 0 -50z m-837 18 c-6 -12 -10 -30 -8 -39 3 -13 14 -7 51
27 26 24 44 36 41 26 -6 -14 -3 -16 15 -10 12 4 28 2 36 -5 8 -6 16 -7 19 -2
3 5 -8 15 -24 22 -17 7 -29 15 -26 17 5 5 126 -55 126 -62 0 -3 -13 1 -30 10
-37 19 -40 19 -40 -6 0 -13 4 -18 12 -13 7 4 8 3 4 -5 -4 -6 2 -28 13 -47 12
-19 16 -32 11 -29 -6 4 -21 28 -35 54 -26 52 -36 60 -75 55 -14 -1 -29 -3 -33
-3 -5 -1 -5 -7 -1 -13 4 -7 3 -10 -1 -5 -5 4 -19 -2 -31 -14 -39 -36 -54 -6
-29 55 6 15 5 17 -5 11 -9 -6 -11 -4 -5 4 13 23 28 -4 15 -28z m249 -10 c0
-14 -1 -14 -6 -1 -3 8 -13 24 -22 35 -16 20 -16 20 7 1 12 -11 22 -26 21 -35z
m838 27 c-3 -8 -6 -5 -6 6 -1 11 2 17 5 13 3 -3 4 -12 1 -19z m-477 -8 c11 -7
5 -8 -20 -4 -43 8 -51 14 -19 14 13 0 31 -5 39 -10z m-500 -65 c0 -5 -5 -3
-10 5 -5 8 -10 20 -10 25 0 6 5 3 10 -5 5 -8 10 -19 10 -25z m403 15 c-3 -12
-8 -19 -11 -16 -5 6 5 36 12 36 2 0 2 -9 -1 -20z m65 -38 c13 -2 31 2 40 10
15 12 16 11 3 -4 -7 -10 -23 -18 -34 -18 -25 0 -57 28 -57 49 0 10 5 7 13 -9
7 -14 23 -26 35 -28z m-214 -51 c4 -6 5 -11 2 -11 -11 0 -36 59 -35 82 0 16 4
10 13 -18 7 -23 16 -46 20 -53z m671 20 c-16 -28 -37 -59 -48 -68 -12 -11 -8
-1 10 24 17 23 36 56 43 73 7 17 15 29 17 26 3 -3 -7 -27 -22 -55z m-387 22
c-9 -10 -18 -29 -20 -42 -4 -30 -26 -39 -35 -14 -3 10 -11 21 -17 25 -7 5 -6
8 2 8 8 0 16 -9 19 -20 7 -26 23 -26 23 1 0 20 31 71 39 63 2 -2 -3 -12 -11
-21z m176 -19 c3 -8 2 -12 -3 -9 -5 3 -12 -3 -16 -14 -3 -11 -12 -25 -20 -31
-8 -7 -5 6 8 29 12 22 23 41 23 41 1 0 5 -7 8 -16z m-287 -26 c-3 -7 -5 -2 -5
12 0 14 2 19 5 13 2 -7 2 -19 0 -25z m-382 -4 c9 -15 12 -23 6 -20 -11 7 -35
46 -28 46 3 0 12 -12 22 -26z m815 23 c0 -2 -10 -12 -22 -23 l-23 -19 19 23
c18 21 26 27 26 19z m-676 -92 c11 -11 32 -28 46 -38 24 -17 24 -17 -7 0 -18
9 -54 40 -80 68 -42 44 -21 28 41 -30z m271 55 c-3 -5 -12 -10 -18 -10 -7 0
-6 4 3 10 19 12 23 12 15 0z m-72 -85 c45 -17 131 -18 182 -1 11 3 7 0 -10 -8
-78 -38 -204 -8 -270 65 l-30 33 41 -35 c22 -20 62 -44 87 -54z m397 35 c-38
-33 -114 -80 -127 -80 -4 0 15 14 42 30 28 16 62 41 75 55 13 14 28 25 34 25
6 0 -5 -14 -24 -30z m-634 -57 c-4 -5 -76 67 -76 76 0 3 18 -12 40 -34 22 -21
38 -40 36 -42z m504 73 c0 -2 -8 -10 -17 -17 -16 -13 -17 -12 -4 4 13 16 21
21 21 13z m151 -70 c-32 -34 -148 -93 -196 -100 l-40 -6 46 14 c57 16 162 72
185 97 9 10 19 19 22 19 3 0 -5 -11 -17 -24z m-556 -64 c-6 -6 -85 38 -85 48
0 5 20 -3 44 -18 24 -15 43 -28 41 -30z m105 27 c27 -15 -11 -10 -45 6 l-30
14 30 -6 c17 -3 37 -9 45 -14z m245 -9 c-11 -5 -29 -8 -40 -8 -16 0 -15 2 5 8
34 11 60 11 35 0z m-192 -7 c-7 -2 -19 -2 -25 0 -7 3 -2 5 12 5 14 0 19 -2 13
-5z m95 -10 c-16 -2 -40 -2 -55 0 -16 2 -3 4 27 4 30 0 43 -2 28 -4z m-177
-31 c-17 -6 -61 7 -61 17 0 5 16 4 36 -2 20 -6 31 -13 25 -15z m46 -8 c-3 -3
-12 -4 -19 -1 -8 3 -5 6 6 6 11 1 17 -2 13 -5z m86 -11 c-13 -2 -33 -2 -45 0
-13 2 -3 4 22 4 25 0 35 -2 23 -4z m85 0 c-10 -2 -28 -2 -40 0 -13 2 -5 4 17
4 22 1 32 -1 23 -4z"/>
</g>
</svg>
