<?xml version="1.0" encoding="UTF-8" standalone="no"?>
<!-- Generator: Adobe Illustrator 19.0.0, SVG Export Plug-In . SVG Version: 6.00 Build 0)  -->

<svg
   xmlns:dc="http://purl.org/dc/elements/1.1/"
   xmlns:cc="http://creativecommons.org/ns#"
   xmlns:rdf="http://www.w3.org/1999/02/22-rdf-syntax-ns#"
   xmlns:svg="http://www.w3.org/2000/svg"
   xmlns="http://www.w3.org/2000/svg"
   xmlns:sodipodi="http://sodipodi.sourceforge.net/DTD/sodipodi-0.dtd"
   xmlns:inkscape="http://www.inkscape.org/namespaces/inkscape"
   version="1.1"
   id="Layer_1"
   x="0px"
   y="0px"
   viewBox="0 0 299.997 299.997"
   style="enable-background:new 0 0 299.997 299.997;"
   xml:space="preserve"
   sodipodi:docname="email-white.svg"
   inkscape:version="0.92.4 (5da689c313, 2019-01-14)"><metadata
   id="metadata43"><rdf:RDF><cc:Work
       rdf:about=""><dc:format>image/svg+xml</dc:format><dc:type
         rdf:resource="http://purl.org/dc/dcmitype/StillImage" /><dc:title></dc:title></cc:Work></rdf:RDF></metadata><defs
   id="defs41" /><sodipodi:namedview
   pagecolor="#ffffff"
   bordercolor="#666666"
   borderopacity="1"
   objecttolerance="10"
   gridtolerance="10"
   guidetolerance="10"
   inkscape:pageopacity="0"
   inkscape:pageshadow="2"
   inkscape:window-width="1366"
   inkscape:window-height="745"
   id="namedview39"
   showgrid="false"
   inkscape:zoom="1.573349"
   inkscape:cx="172.51214"
   inkscape:cy="182.93942"
   inkscape:window-x="1912"
   inkscape:window-y="234"
   inkscape:window-maximized="1"
   inkscape:current-layer="g4" />
<g
   id="g6">
	<g
   id="g4">
		<path
   d="M149.996,0C67.157,0,0.001,67.158,0.001,149.997c0,82.837,67.156,150,149.995,150s150-67.163,150-150    C299.996,67.158,232.835,0,149.996,0z M149.999,52.686l88.763,55.35H61.236L149.999,52.686z M239.868,196.423h-0.009    c0,8.878-7.195,16.072-16.072,16.072H76.211c-8.878,0-16.072-7.195-16.072-16.072v-84.865c0-0.939,0.096-1.852,0.252-2.749    l84.808,52.883c0.104,0.065,0.215,0.109,0.322,0.169c0.112,0.062,0.226,0.122,0.34,0.179c0.599,0.309,1.216,0.558,1.847,0.721    c0.065,0.018,0.13,0.026,0.195,0.041c0.692,0.163,1.393,0.265,2.093,0.265h0.005c0.005,0,0.01,0,0.01,0    c0.7,0,1.401-0.099,2.093-0.265c0.065-0.016,0.13-0.023,0.195-0.041c0.63-0.163,1.245-0.412,1.847-0.721    c0.114-0.057,0.228-0.117,0.34-0.179c0.106-0.06,0.218-0.104,0.322-0.169l84.808-52.883c0.156,0.897,0.252,1.808,0.252,2.749    V196.423z"
   id="path2" />
	<path
   style="fill:#ffffff;stroke-width:0.63558686"
   d="M 136.7286,299.20401 C 90.612368,294.4678 51.245959,270.99822 25.488411,232.88452 15.993377,218.83462 7.7361014,199.54577 3.9482156,182.56701 0.19094205,165.72545 -0.58619055,143.80557 1.9907344,127.35409 6.8032283,96.630403 20.725126,68.698794 42.340547,46.399952 51.367563,37.087526 57.023265,32.334343 67.404008,25.336035 85.119817,13.392706 106.7403,5.1307765 129.10156,1.759284 c 10.55804,-1.59187746 31.39069,-1.59187746 41.94873,0 33.93854,5.1170443 63.74013,20.543092 87.24199,45.15863 21.59567,22.619022 35.19599,50.548877 39.94179,82.025146 1.57094,10.41915 1.58094,31.32268 0.0201,41.91696 -3.18657,21.62854 -11.37411,43.24727 -23.1204,61.04812 -6.22949,9.44043 -10.47467,14.65903 -18.792,23.10101 -22.66256,23.00218 -51.76245,37.95271 -83.70247,43.00344 -6.40611,1.01301 -30.0196,1.79644 -35.91066,1.19142 z m 94.06686,-88.19606 c 3.8195,-1.80567 6.15476,-4.17809 7.89341,-8.01902 1.26347,-2.79119 1.29502,-3.95949 1.30864,-48.4635 0.008,-27.18306 -0.22108,-45.60336 -0.56793,-45.60336 -0.32004,0 -19.66876,11.89938 -42.99716,26.44306 -23.32841,14.54368 -43.26107,26.7379 -44.29482,27.09826 -1.28543,0.4481 -2.54988,0.44948 -4.00025,0.004 -1.16638,-0.35797 -20.94309,-12.39101 -43.94824,-26.74009 -23.005139,-14.34917 -42.3273,-26.2811 -42.938129,-26.5155 -1.050763,-0.40321 -1.110599,2.04937 -1.110599,45.5212 0,45.26395 0.0197,45.98808 1.324406,48.68324 1.55709,3.21652 6.304403,7.60852 9.101437,8.42024 1.111851,0.32267 35.703785,0.5934 79.509705,0.62227 l 77.5416,0.0511 3.17793,-1.50236 z m 7.28655,-103.58622 C 237.38597,106.775 154.6204,55.066364 150.62275,52.780665 149.97602,52.410889 64.352683,105.22237 62.069842,107.39908 c -0.796738,0.75969 11.869017,0.88741 88.006088,0.88741 75.03619,0 88.7913,-0.13516 88.00608,-0.86476 z"
   id="path58"
   inkscape:connector-curvature="0" /></g>
</g>
<g
   id="g8">
</g>
<g
   id="g10">
</g>
<g
   id="g12">
</g>
<g
   id="g14">
</g>
<g
   id="g16">
</g>
<g
   id="g18">
</g>
<g
   id="g20">
</g>
<g
   id="g22">
</g>
<g
   id="g24">
</g>
<g
   id="g26">
</g>
<g
   id="g28">
</g>
<g
   id="g30">
</g>
<g
   id="g32">
</g>
<g
   id="g34">
</g>
<g
   id="g36">
</g>
</svg>