<?xml version="1.0" encoding="utf-8"?>
<!-- Generator: Adobe Illustrator 15.1.0, SVG Export Plug-In . SVG Version: 6.00 Build 0)  -->
<!DOCTYPE svg PUBLIC "-//W3C//DTD SVG 1.1//EN" "http://www.w3.org/Graphics/SVG/1.1/DTD/svg11.dtd">
<svg version="1.1" id="Layer_1" fill="#FFFFFF" xmlns="http://www.w3.org/2000/svg" xmlns:xlink="http://www.w3.org/1999/xlink" x="0px" y="0px"
	 width="200px" height="200px" viewBox="0 0 200 200" enable-background="new 0 0 200 200" xml:space="preserve">
<path d="M127.375,117.568c-8.436,7.225-17.831,11.082-27.375,11.082s-18.939-3.857-27.375-11.082
	C36.306,122.308,10,136.223,10,152.65c0,20.334,40.294,36.819,90,36.819c49.707,0,90-16.485,90-36.819
	C190,136.222,163.694,122.308,127.375,117.568z"/>
<path d="M100,122.65c11.917,0,23.768-7.289,33.369-20.524c8.793-12.122,14.256-27.82,14.256-40.97
	c0-26.261-21.364-47.625-47.625-47.625S52.375,34.895,52.375,61.156c0,13.15,5.463,28.849,14.256,40.97
	C76.232,115.361,88.083,122.65,100,122.65z"/>
</svg>
