<svg xmlns="http://www.w3.org/2000/svg" xmlns:xlink="http://www.w3.org/1999/xlink" viewBox="0 0 84.083 94.083" fill="#fff" fill-rule="evenodd" stroke="#000" stroke-linecap="round" stroke-linejoin="round"><use xlink:href="#A" x="1.042" y="1.042"/><symbol id="A" overflow="visible"><g stroke="none" fill-rule="nonzero"><path d="M17.317 29.167C17.317 13.008 27.538 0 40.234 0S63.15 13.008 63.15 29.167 52.93 58.333 40.234 58.333 17.317 45.325 17.317 29.167z" fill="#fcea2b"/><path d="M81.254 91.53c-1.15 0-2.083-.933-2.083-2.083v-6.25c0-9.27-9.375-18.354-18.02-18.733-12.927 10.444-26.02 10.444-38.958 0-8.658.38-20.108 9.458-20.108 18.733v6.25a2.08 2.08 0 0 1-.609 1.474A2.08 2.08 0 0 1 0 91.53" fill="#92d3f5"/></g><g fill="none" stroke-width="4.167"><path d="M40.625 58.334c-12.367 0-23.05-12.5-23.05-29.167 0-6.844 1.98-15.37 6.25-20.833.54-.694 1.124-1.35 1.75-1.967A22.12 22.12 0 0 1 40.492.521h.13A22.12 22.12 0 0 1 55.54 6.367c.626.616 1.21 1.273 1.75 1.967 4.27 5.465 6.25 14 6.25 20.833 0 16.667-10.68 29.167-23.048 29.167" stroke-linecap="butt"/><path d="M1.046 89.327v-6.25c0-10.404 10.433-18.75 20.833-18.75q18.75 15.625 37.5 0c10.404 0 20.833 8.346 20.833 18.75v6.25"/></g><path d="M53.13 26.827a4.17 4.17 0 0 1-4.167 4.167 4.17 4.17 0 0 1-4.167-4.167 4.17 4.17 0 0 1 4.167-4.167 4.17 4.17 0 0 1 4.167 4.167m-16.667 0c0 1.685-1.015 3.204-2.572 3.85s-3.35.288-4.54-.903-1.548-2.984-.903-4.54 2.164-2.572 3.85-2.572a4.17 4.17 0 0 1 4.167 4.167" stroke="none" fill="#000" fill-rule="nonzero"/><path d="M34.38 44.015a13.28 13.28 0 0 0 12.5 0" fill="none" stroke-width="4.167"/></symbol></svg>