<?xml version="1.0" standalone="no"?>
<!DOCTYPE svg PUBLIC "-//W3C//DTD SVG 20010904//EN"
 "http://www.w3.org/TR/2001/REC-SVG-20010904/DTD/svg10.dtd">
<svg version="1.0" xmlns="http://www.w3.org/2000/svg"
 width="128.000000pt" height="128.000000pt" viewBox="0 0 128.000000 128.000000"
 preserveAspectRatio="xMidYMid meet">

<g transform="translate(0.000000,128.000000) scale(0.100000,-0.100000)"
fill="#000000" stroke="none">
<path d="M581 1246 c11 -9 160 -15 154 -6 -3 6 -40 10 -82 10 -42 0 -74 -2
-72 -4z"/>
<path d="M364 1186 c-98 -47 -183 -121 -243 -212 -50 -76 -97 -192 -88 -217 2
-6 11 11 20 39 45 152 175 307 312 374 82 40 80 39 74 45 -3 2 -37 -10 -75
-29z"/>
<path d="M549 1170 c-165 -26 -325 -143 -399 -293 -32 -65 -60 -176 -60 -239
0 -34 -3 -38 -25 -38 l-25 0 0 -215 0 -215 95 0 c88 0 95 1 95 20 0 11 4 20 9
20 27 0 102 -36 148 -71 89 -67 151 -83 227 -60 17 6 68 16 113 25 104 18 195
63 274 135 34 31 94 72 133 91 82 41 106 73 86 119 -6 16 -23 33 -36 40 -22
10 -24 15 -17 48 20 97 -1 242 -47 334 -17 33 -18 37 -3 52 15 15 15 18 -1 36
-12 13 -15 27 -10 45 5 22 3 28 -15 33 -15 4 -21 13 -21 34 0 25 -4 29 -28 29
-21 0 -32 7 -40 25 -10 22 -15 24 -33 15 -16 -9 -25 -8 -40 6 -18 16 -20 16
-38 0 -17 -16 -23 -16 -89 3 -88 24 -181 32 -253 21z m206 -24 c56 -13 69 -39
23 -44 -22 -3 -28 -9 -28 -28 0 -16 -8 -28 -25 -36 -27 -12 -28 -13 -15 -43 5
-13 3 -26 -8 -37 -14 -16 -13 -20 2 -37 14 -15 15 -24 7 -40 -15 -28 -14 -30
14 -41 18 -7 25 -17 25 -35 0 -18 5 -25 19 -25 17 0 14 -9 -25 -77 -24 -43
-44 -82 -44 -86 0 -5 18 -6 39 -2 38 6 39 5 51 -29 6 -20 15 -36 18 -36 4 0
26 34 50 75 23 41 46 75 50 75 4 0 27 -36 51 -80 25 -44 47 -80 51 -80 4 0 12
18 19 39 11 39 11 39 47 29 20 -5 38 -7 41 -4 3 3 -15 41 -41 85 -25 44 -46
83 -46 86 0 3 9 5 20 5 15 0 20 7 20 29 0 26 14 41 39 41 5 0 17 -26 27 -57
26 -80 27 -268 2 -287 -10 -7 -97 -35 -194 -62 -131 -35 -179 -45 -182 -36 -2
7 -15 26 -29 42 -24 30 -26 30 -127 30 -99 0 -105 1 -177 38 -51 27 -94 41
-136 46 -45 5 -63 11 -63 21 0 12 -14 15 -60 15 l-60 0 0 58 c0 213 173 427
391 486 64 17 185 19 254 2z m175 -21 c9 -10 17 -12 30 -5 14 8 21 4 34 -15 9
-14 25 -25 36 -25 13 0 20 -7 20 -20 0 -10 9 -24 21 -31 15 -7 19 -17 15 -32
-3 -12 1 -29 11 -39 15 -17 15 -19 0 -36 -10 -10 -14 -27 -11 -39 4 -15 0 -25
-15 -32 -12 -7 -21 -21 -21 -31 0 -13 -7 -20 -20 -20 -12 0 -25 -10 -31 -24
-10 -20 -16 -23 -34 -16 -16 6 -27 4 -38 -8 -15 -14 -18 -14 -36 2 -15 14 -23
15 -40 6 -18 -9 -22 -7 -31 15 -7 18 -17 25 -35 25 -20 0 -25 5 -25 24 0 15
-7 26 -20 29 -17 4 -19 9 -11 30 7 18 6 28 -6 40 -13 13 -14 19 -4 31 8 9 11
26 7 40 -5 19 -1 26 14 31 13 4 20 15 20 31 0 19 5 24 24 24 16 0 27 7 31 21
6 17 13 20 35 15 18 -3 33 0 40 9 16 19 24 19 40 0z m-83 -384 c55 21 56 -7 3
-97 l-40 -68 -11 32 c-10 30 -14 32 -45 26 l-34 -6 42 73 c37 65 43 70 51 51
8 -17 14 -19 34 -11z m207 -45 c20 -35 36 -67 36 -70 0 -3 -14 -3 -30 1 -27 5
-31 2 -41 -27 l-12 -32 -44 76 c-37 62 -43 79 -33 91 8 9 22 12 41 8 18 -3 29
-1 29 6 0 27 21 6 54 -53z m-836 -313 l-3 -198 -77 -3 -78 -3 0 201 0 200 80
0 80 0 -2 -197z m139 152 c27 -8 67 -26 87 -40 33 -23 46 -25 140 -25 89 0
107 -3 130 -21 20 -16 26 -29 26 -58 0 -62 -23 -75 -148 -82 l-107 -5 112 -2
111 -2 25 30 c14 16 27 34 29 39 4 11 353 111 388 111 55 0 82 -75 38 -104
-42 -27 -592 -287 -619 -293 -40 -8 -96 14 -163 63 -50 37 -102 62 -163 80
-10 2 -13 44 -13 164 l0 160 38 0 c21 0 61 -7 89 -15z m638 -284 c-3 -5 -32
-28 -65 -50 -66 -43 -142 -75 -205 -84 -30 -5 -4 12 110 68 151 75 171 83 160
66z"/>
<path d="M280 630 c20 -13 40 -13 40 0 0 6 -12 10 -27 10 -22 0 -25 -2 -13
-10z"/>
<path d="M360 620 c0 -5 6 -10 14 -10 7 0 40 -13 72 -30 67 -34 64 -33 64 -21
0 7 -128 71 -143 71 -4 0 -7 -4 -7 -10z"/>
<path d="M863 984 c-8 -21 13 -42 28 -27 13 13 5 43 -11 43 -6 0 -13 -7 -17
-16z"/>
<path d="M901 954 c-18 -25 -30 -48 -27 -52 6 -6 22 13 59 70 31 46 3 31 -32
-18z"/>
<path d="M915 930 c-4 -7 -3 -16 3 -22 14 -14 45 -2 40 15 -6 16 -34 21 -43 7z"/>
<path d="M144 245 c-4 -9 -2 -21 4 -27 15 -15 44 -1 40 19 -4 23 -36 29 -44 8z"/>
<path d="M1190 877 c0 -4 9 -34 20 -66 11 -33 24 -101 28 -152 l9 -94 2 73 c1
80 -22 199 -44 228 -8 11 -15 15 -15 11z"/>
<path d="M1020 175 c-68 -56 -147 -98 -225 -121 -36 -11 -53 -19 -41 -22 50
-11 258 97 320 167 32 35 4 23 -54 -24z"/>
</g>
</svg>
